<mxfile host="cd758f31-0a39-4361-9e5d-708460822899" modified="2020-08-01T02:59:01.819Z" agent="5.0 (Windows NT 10.0; Win64; x64) AppleWebKit/537.36 (KHTML, like Gecko) Code/1.47.3 Chrome/78.0.3904.130 Electron/7.3.2 Safari/537.36" etag="-Z-485yWk5RitALW4E0-" version="13.1.3">
    <diagram id="6hGFLwfOUW9BJ-s0fimq" name="Page-1">
        <mxGraphModel dx="528" dy="294" grid="1" gridSize="10" guides="1" tooltips="1" connect="1" arrows="1" fold="1" page="1" pageScale="1" pageWidth="827" pageHeight="1169" math="0" shadow="0">
            <root>
                <mxCell id="0"/>
                <mxCell id="1" parent="0"/>
                <mxCell id="2" value="5" style="rounded=0;whiteSpace=wrap;html=1;" parent="1" vertex="1">
                    <mxGeometry x="40" y="80" width="30" height="30" as="geometry"/>
                </mxCell>
                <mxCell id="8" value="&lt;h1 class=&quot;title style-scope ytd-video-primary-info-renderer&quot; style=&quot;margin: 0px ; padding: 0px ; border: 0px ; background: rgb(249 , 249 , 249) ; overflow: hidden ; font-weight: 400 ; font-family: &amp;#34;roboto&amp;#34; , &amp;#34;arial&amp;#34; , sans-serif&quot;&gt;&lt;div id=&quot;info&quot; class=&quot;style-scope ytd-video-primary-info-renderer&quot; style=&quot;margin: 0px ; padding: 0px ; border: 0px ; background: rgb(249 , 249 , 249) ; display: flex ; font-family: &amp;#34;roboto&amp;#34; , &amp;#34;arial&amp;#34; , sans-serif ; font-size: 10px ; font-style: normal ; font-weight: 400 ; letter-spacing: normal ; text-indent: 0px ; text-transform: none ; word-spacing: 0px&quot;&gt;&lt;/div&gt;&lt;/h1&gt;&lt;h1 class=&quot;title style-scope ytd-video-primary-info-renderer&quot; style=&quot;margin: 0px ; padding: 0px ; border: 0px ; background: rgb(249 , 249 , 249) ; display: block ; overflow: hidden ; font-weight: 400 ; font-family: &amp;#34;roboto&amp;#34; , &amp;#34;arial&amp;#34; , sans-serif ; font-style: normal ; letter-spacing: normal ; text-indent: 0px ; text-transform: none ; word-spacing: 0px&quot;&gt;&lt;font style=&quot;font-size: 16px&quot;&gt;Bubble Sort Algorithm&lt;/font&gt;&lt;/h1&gt;&lt;div id=&quot;info&quot; class=&quot;style-scope ytd-video-primary-info-renderer&quot; style=&quot;margin: 0px ; padding: 0px ; border: 0px ; background: rgb(249 , 249 , 249) ; display: flex ; font-family: &amp;#34;roboto&amp;#34; , &amp;#34;arial&amp;#34; , sans-serif ; font-size: 10px&quot;&gt;&lt;/div&gt;" style="text;html=1;strokeColor=none;fillColor=none;align=center;verticalAlign=middle;whiteSpace=wrap;rounded=0;fontColor=#383838;" vertex="1" parent="1">
                    <mxGeometry x="30" y="30" width="230" height="40" as="geometry"/>
                </mxCell>
                <mxCell id="9" value="5" style="rounded=0;whiteSpace=wrap;html=1;" vertex="1" parent="1">
                    <mxGeometry x="70" y="80" width="30" height="30" as="geometry"/>
                </mxCell>
                <mxCell id="10" value="5" style="rounded=0;whiteSpace=wrap;html=1;" vertex="1" parent="1">
                    <mxGeometry x="190" y="80" width="30" height="30" as="geometry"/>
                </mxCell>
                <mxCell id="11" value="5" style="rounded=0;whiteSpace=wrap;html=1;" vertex="1" parent="1">
                    <mxGeometry x="100" y="80" width="30" height="30" as="geometry"/>
                </mxCell>
                <mxCell id="12" value="5" style="rounded=0;whiteSpace=wrap;html=1;" vertex="1" parent="1">
                    <mxGeometry x="220" y="80" width="30" height="30" as="geometry"/>
                </mxCell>
                <mxCell id="13" value="5" style="rounded=0;whiteSpace=wrap;html=1;" vertex="1" parent="1">
                    <mxGeometry x="160" y="80" width="30" height="30" as="geometry"/>
                </mxCell>
                <mxCell id="14" value="5" style="rounded=0;whiteSpace=wrap;html=1;" vertex="1" parent="1">
                    <mxGeometry x="130" y="80" width="30" height="30" as="geometry"/>
                </mxCell>
            </root>
        </mxGraphModel>
    </diagram>
</mxfile>